HIERARCHY
ROOT pelvis
{
  OFFSET 0 100 0
  CHANNELS 6 Xposition Yposition Zposition Zrotation Xrotation Yrotation
  JOINT pelvis_right_femur
  {
    OFFSET -10.78128 -3.44521 -0.5502486
    CHANNELS 3 Zrotation Xrotation Yrotation
    JOINT right_femur_tibia
    {
      OFFSET -0.8047443 -44.0398 -0.1307829
      CHANNELS 3 Zrotation Xrotation Yrotation
      JOINT right_tibia_foot
      {
        OFFSET 3.006224 -47.83518 -5
        CHANNELS 3 Zrotation Xrotation Yrotation
        End Site
        {
          OFFSET 0 -5 15
        }
      }
    }
  }
  JOINT pelvis_left_femur
  {
    OFFSET 10.78128 -3.44521 -0.5502486
    CHANNELS 3 Zrotation Xrotation Yrotation
    JOINT left_femur_tibia
    {
      OFFSET 0.8047443 -44.0398 -0.1307829
      CHANNELS 3 Zrotation Xrotation Yrotation
      JOINT left_tibia_foot
      {
        OFFSET -4.370144 -48.10324 -4.275266
        CHANNELS 3 Zrotation Xrotation Yrotation
        End Site
        {
          OFFSET 0 -5 15
        }
      }
    }
  }
  JOINT pelvis_spine1
  {
    OFFSET 0 6.468898 -3.129235
    CHANNELS 3 Zrotation Xrotation Yrotation
    JOINT spine1
    {
      OFFSET 0 23.15396 4.99043
      CHANNELS 3 Zrotation Xrotation Yrotation
      JOINT spine2
      {
        OFFSET 0 20.79997 -5.064912
        CHANNELS 3 Zrotation Xrotation Yrotation
        JOINT neck
        {
          OFFSET 0 14.38658 9.616178
          CHANNELS 3 Zrotation Xrotation Yrotation
          End Site
          {
            OFFSET 0 20 0
          }
        }
      }
      JOINT right_manubrium
      {
        OFFSET -5.722621 16.35077 3.967754
        CHANNELS 3 Zrotation Xrotation Yrotation
        JOINT right_clavicle
        {
          OFFSET -13.16364 1.694482 -4.693211
          CHANNELS 3 Zrotation Xrotation Yrotation
          JOINT right_humerus
          {
            OFFSET -28.5034 -0.3100689 -2.792744
            CHANNELS 3 Zrotation Xrotation Yrotation
            JOINT right_radius
            {
              OFFSET -25.15693 0.02248979 -1.271978
              CHANNELS 3 Zrotation Xrotation Yrotation
              End Site
              {
                OFFSET -15 0 0
              }
            }
          }
        }
      }
      JOINT left_manubrium
      {
        OFFSET 5.722621 16.35077 3.967754
        CHANNELS 3 Zrotation Xrotation Yrotation
        JOINT left_clavicle
        {
          OFFSET 13.16364 1.694482 -4.693211
          CHANNELS 3 Zrotation Xrotation Yrotation
          JOINT left_humerus
          {
            OFFSET 29.39168 -1.063119 -2.237045
            CHANNELS 3 Zrotation Xrotation Yrotation
            JOINT left_radius
            {
              OFFSET 24.59957 -0.9528479 0.9047498
              CHANNELS 3 Zrotation Xrotation Yrotation
              End Site
              {
                OFFSET 15 -0 -0
              }
            }
          }
        }
      }
    }
  }
}
MOTION
Frames: 17
Frame Time: 0.0416666666667
0 103.5113 0 2.558061 -0.4638226 0.230683 4.086163 -16.77201 10.80934 -0 38.1999 -0 -2.768179 -18.1094 -2.659537 -9.624022 10.94825 -22.84156 -0 3.553307 -0 22.96347 -8.907926 32.13572 -2.571289 -2.097746 5.727201 2.261294 9.871226 -6.724263 1.461506 21.39025 6.995896 3.013183 -25.42034 10.23169 4.955539 -19.95721 11.05831 86.80572 39.92045 -17.61875 -0 0 14.43247 -7.472192 8.585625 4.284723 6.035468 -20.06039 -1.173013 -92.00833 20.94595 22.04706 0 0 -17.38178 14.86733 12.72995 -2.445178
0.5563581 103.5946 1.725134 1.699902 0.1793232 0.4336586 5.845227 -19.87655 11.88908 -0 38.82771 -0 -3.135308 -16.02297 -2.183506 -9.224675 10.48116 -22.31364 -0 5.0409 -0 24.27139 -8.131312 31.96969 -2.619746 -1.991762 5.506618 2.432205 9.836445 -6.87076 1.514705 21.27264 7.045811 2.999807 -25.6644 10.38519 4.990914 -19.89359 11.07898 87.07527 40.17153 -17.92408 -0 0 14.07648 -6.803276 8.411342 4.116511 6.051565 -20.07652 -1.314399 -91.30237 20.76196 21.15216 0 0 -18.75152 15.29878 12.37049 -2.901585
0.9691884 103.3658 3.919583 1.59756 0.8363181 0.6524205 4.817498 -21.91096 7.737646 -0 30.3909 -0 -5.050687 -13.08513 -1.430059 -8.595024 11.60354 -21.49806 -0 5.393177 -0 18.38141 -13.66455 28.60629 -2.574767 -1.890384 5.186623 2.542254 9.88169 -7.056657 1.507601 21.14565 7.105527 3.039007 -25.70527 10.36598 5.052191 -19.60817 11.13698 87.43855 39.94845 -18.52281 -0 0 13.47886 -6.817686 8.471499 4.304701 6.101246 -20.19036 -1.534451 -90.5211 20.70985 20.07853 0 0 -19.88647 15.16101 11.91306 -2.803868
1.346438 102.9951 6.400722 1.288885 1.238536 0.8978486 4.769183 -23.84913 6.193178 -0 26.79874 -0 -5.941379 -11.10715 -1.051507 -8.159106 12.08587 -20.77542 -0 5.970254 -0 15.88512 -15.84399 26.7742 -2.544614 -1.806608 4.984282 2.58372 9.906128 -7.152367 1.494477 21.07225 7.149895 3.078256 -25.66848 10.32718 5.080731 -19.40804 11.17105 87.65364 39.84007 -18.84436 -0 0 13.08584 -6.959218 8.544253 4.488126 6.135551 -20.25497 -1.673314 -89.98378 20.60887 19.36168 0 0 -20.55474 15.05333 11.57811 -2.743811
1.702186 102.52 9.231525 0.8548672 1.730568 1.178017 5.000539 -26.33979 5.002922 -0 23.52929 -0 -6.724744 -8.839619 -0.6725551 -7.698122 12.54644 -19.81637 -0 6.923807 -0 13.8847 -17.50807 24.94316 -2.500381 -1.758126 4.819718 2.61077 9.94513 -7.240596 1.474894 21.01585 7.17866 3.111091 -25.61257 10.26721 5.109255 -19.21845 11.20444 87.84178 39.6318 -19.17593 -0 0 12.75209 -7.165582 8.640695 4.665648 6.168066 -20.33339 -1.790116 -89.60884 20.59304 18.82967 0 0 -20.98881 14.84851 11.34339 -2.564226
2.048164 101.9844 12.44047 0.389407 2.23647 1.506543 5.411156 -28.8212 4.222054 -0 20.87086 -0 -7.311335 -6.630493 -0.3203627 -7.282665 12.9531 -18.77969 -0 8.269249 -0 12.50283 -18.454 23.30797 -2.4582 -1.721294 4.703645 2.610333 9.983219 -7.295541 1.451386 20.98462 7.197449 3.142855 -25.52364 10.1926 5.125935 -19.0578 11.22969 87.97376 39.43126 -19.41494 -0 0 12.49743 -7.443649 8.745221 4.846096 6.192024 -20.39552 -1.875768 -89.35878 20.58518 18.46593 0 0 -21.18697 14.62081 11.17149 -2.360483
2.390782 101.4404 16.08922 -0.1241476 2.718858 1.89178 5.957505 -31.1734 3.668721 -0 18.5911 -0 -7.796866 -4.356247 0.04144774 -6.853747 13.3514 -17.61945 -0 10.27446 -0 11.31837 -18.79616 21.61296 -2.414292 -1.701239 4.617969 2.600714 10.02594 -7.33929 1.426296 20.96651 7.206506 3.169444 -25.42848 10.1112 5.139194 -18.91713 11.25195 88.07731 39.20256 -19.62653 -0 0 12.29492 -7.741732 8.850415 5.014182 6.210032 -20.45551 -1.943786 -89.20798 20.61473 18.22535 0 0 -21.24038 14.36187 11.0565 -2.114607
2.737594 100.9658 20.24519 -0.7160772 3.113783 2.329523 6.66866 -33.13984 3.36212 -0 16.862 -0 -8.213138 -2.048381 0.4038002 -6.357246 13.69572 -16.33631 -0 13.27244 -0 10.06888 -18.42381 19.72165 -2.372606 -1.690124 4.559216 2.581301 10.06893 -7.36871 1.400567 20.96052 7.208621 3.192576 -25.32621 10.02593 5.147506 -18.79724 11.27036 88.15034 38.97339 -19.7934 -0 0 12.14039 -8.055627 8.952276 5.174244 6.221499 -20.5071 -1.995608 -89.12964 20.65938 18.08107 0 0 -21.17883 14.09295 10.97992 -1.854192
3.09899 100.6723 24.9757 -1.425749 3.349146 2.793278 7.589705 -34.40891 3.340448 -0 15.88385 -0 -8.585419 0.1991823 0.7285399 -5.727097 13.88238 -14.90193 -0 17.71455 -0 8.476334 -17.15956 17.47665 -2.332534 -1.687525 4.51942 2.558115 10.11278 -7.390952 1.374984 20.9616 7.204995 3.21164 -25.22507 9.939837 5.153493 -18.69428 11.28662 88.20264 38.73889 -19.93476 -0 0 12.02208 -8.36779 9.048464 5.32325 6.227736 -20.55431 -2.036684 -89.10493 20.722 18.00691 0 0 -21.04596 13.81636 10.93323 -1.58014
3.48948 100.7088 30.31905 -2.267072 3.376001 3.220812 8.718786 -34.53452 3.635002 -0 15.79013 -0 -8.912102 2.094997 0.9293822 -4.91618 13.68355 -13.30908 -0 24.09153 -0 6.309481 -14.79772 14.78409 -2.294922 -1.690433 4.494504 2.532262 10.15608 -7.406934 1.349891 20.9679 7.197148 3.227388 -25.12586 9.854223 5.157408 -18.60626 11.301 88.23687 38.50679 -20.05098 -0 0 11.93377 -8.674449 9.138255 5.46319 6.229364 -20.59649 -2.069258 -89.11788 20.79484 17.9841 0 0 -20.86486 13.53918 10.90702 -1.301671
3.925601 101.239 36.23101 -3.165294 3.216617 3.506997 9.871586 -32.94366 4.141907 -0 16.37394 -0 -9.176541 3.069965 0.8795129 -3.952696 12.67808 -11.61892 -0 32.71714 -0 3.477209 -11.27725 11.71349 -2.2595 -1.697783 4.48022 2.505879 10.19876 -7.419449 1.325463 20.97715 7.186004 3.240052 -25.03075 9.76996 5.160225 -18.53039 11.3142 88.25771 38.27671 -20.1498 -0 0 11.86856 -8.970645 9.221563 5.594446 6.227253 -20.63525 -2.096026 -89.15699 20.87645 17.99737 0 0 -20.65653 13.26297 10.89539 -1.020622
4.416791 102.3686 42.51423 -3.862958 2.995057 3.527154 10.56279 -29.14827 4.497535 -0 16.79631 -0 -9.404813 2.385901 0.499339 -3.032955 10.23446 -10.03368 -0 43.22423 -0 0.2257459 -7.042193 8.649229 -2.226261 -1.708189 4.473852 2.47964 10.24044 -7.429507 1.301719 20.98821 7.172361 3.250127 -24.93979 9.687257 5.162255 -18.46459 11.32654 88.26764 38.05039 -20.23395 -0 0 11.82174 -9.255777 9.298836 5.718589 6.221992 -20.671 -2.118571 -89.21364 20.96372 18.03586 0 0 -20.43321 12.98947 10.89347 -0.7396788
4.947827 104.0211 48.8071 -3.899546 2.785154 3.206836 10.18805 -23.27653 4.203258 -0 15.78833 -0 -9.703757 -0.2029678 -0.06258592 -2.543874 5.798154 -8.890118 -0 53.98219 -0 -2.708399 -3.385046 6.347831 -2.194948 -1.720871 4.473194 2.4542 10.28113 -7.43824 1.278596 21.00015 7.156723 3.257948 -24.85305 9.606021 5.163863 -18.40691 11.33837 88.269 37.82745 -20.30701 -0 0 11.78928 -9.52978 9.37069 5.836834 6.214073 -20.70451 -2.138275 -89.28183 21.05539 18.09159 0 0 -20.20374 12.7186 10.89796 -0.4591844
5.468877 105.8861 54.75253 -2.942309 2.246269 2.607922 8.662839 -16.39516 3.2169 -0 13.04548 -0 -9.983202 -3.514651 -0.4167126 -2.727766 -0.4055754 -8.37342 -0 62.38296 -0 -4.45399 -1.824523 5.678532 -2.165378 -1.735117 4.476786 2.429729 10.32081 -7.446164 1.25598 21.0125 7.139449 3.263859 -24.76995 9.52592 5.165191 -18.35581 11.34991 88.26322 37.60775 -20.37081 -0 0 11.76835 -9.793978 9.437837 5.950624 6.203809 -20.73616 -2.156049 -89.35739 21.15012 18.15907 0 0 -19.97303 12.44997 10.90636 -0.1792586
5.918895 107.5867 60.24004 -1.364171 0.8642574 1.96912 6.785717 -9.638484 2.309585 -0 10.10195 -0 -9.678909 -5.710467 -0.3654169 -3.077385 -7.243906 -8.059001 -0 66.24 -0 -4.971436 -2.33885 6.930739 -2.137344 -1.750432 4.483534 2.406327 10.35954 -7.453709 1.233743 21.02493 7.120761 3.26812 -24.68994 9.44653 5.166351 -18.31003 11.36132 88.25136 37.39066 -20.42695 -0 0 11.75675 -10.04986 9.500942 6.061228 6.191409 -20.76632 -2.172623 -89.43736 21.2472 18.23435 0 0 -19.74428 12.18268 10.91689 0.1006602
6.273957 108.847 65.36566 -0.03792884 -1.030522 1.509901 5.53243 -3.348648 2.051101 -0 8.090993 -0 -8.68426 -6.763859 -0.1657193 -2.618837 -13.78313 -7.192831 -0 64.28763 -0 -4.908007 -3.466873 9.335504 -2.11069 -1.76638 4.492633 2.383991 10.3974 -7.461126 1.211763 21.03724 7.100811 3.270954 -24.61236 9.367419 5.167392 -18.26856 11.37276 88.23414 37.17566 -20.47641 -0 0 11.7528 -10.29903 9.560593 6.169821 6.176999 -20.79523 -2.188556 -89.5195 21.34599 18.31445 0 0 -19.51953 11.91587 10.9281 0.3811507
6.583081 109.464 70.24772 0.5539931 -2.614133 1.184006 5.207903 2.165077 2.020554 -0 6.717762 -0 -7.801402 -8.104997 -0.03916987 -1.03676 -19.48601 -5.564513 -0 56.46883 -0 -4.315664 -4.329299 11.80377 -2.085284 -1.782591 4.503425 2.362729 10.43443 -7.468633 1.189937 21.04927 7.079705 3.272534 -24.53667 9.288191 5.168347 -18.23054 11.38434 88.21215 36.96224 -20.52005 -0 0 11.75512 -10.54286 9.617271 6.277403 6.160651 -20.82308 -2.204331 -89.60196 21.44601 18.39688 0 0 -19.30044 11.64869 10.93879 0.6628358
